<svg width="32" height="32" viewBox="0 0 32 32" fill="none" xmlns="http://www.w3.org/2000/svg">
<g clip-path="url(#clip0_1530_31761)">
<path d="M25 0H7C3.13401 0 0 3.13401 0 7V25C0 28.866 3.13401 32 7 32H25C28.866 32 32 28.866 32 25V7C32 3.13401 28.866 0 25 0Z" fill="#FEF0F0"/>
<path d="M22.5848 12.2227C22.3614 11.7094 22.0393 11.2442 21.6364 10.8533C21.2332 10.4611 20.7579 10.1495 20.2362 9.93536C19.6953 9.7124 19.1151 9.59828 18.5294 9.59962C17.7076 9.59962 16.9059 9.82289 16.2091 10.2446C16.0424 10.3455 15.8841 10.4563 15.7341 10.5771C15.584 10.4563 15.4257 10.3455 15.259 10.2446C14.5623 9.82289 13.7605 9.59962 12.9387 9.59962C12.347 9.59962 11.7736 9.71208 11.2319 9.93536C10.7085 10.1504 10.2368 10.4596 9.83168 10.8533C9.4283 11.2438 9.10606 11.7091 8.88324 12.2227C8.65155 12.7569 8.5332 13.3242 8.5332 13.908C8.5332 14.4588 8.64655 15.0327 8.87157 15.6165C9.05993 16.1044 9.32996 16.6105 9.675 17.1216C10.2218 17.9303 10.9735 18.7738 11.907 19.6289C13.4538 21.0463 14.9856 22.0254 15.0506 22.0651L15.4457 22.3165C15.6207 22.4273 15.8457 22.4273 16.0208 22.3165L16.4158 22.0651C16.4808 22.0238 18.011 21.0463 19.5595 19.6289C20.4929 18.7738 21.2447 17.9303 21.7914 17.1216C22.1365 16.6105 22.4082 16.1044 22.5948 15.6165C22.8199 15.0327 22.9332 14.4588 22.9332 13.908C22.9349 13.3242 22.8165 12.7569 22.5848 12.2227Z" fill="#FF8585"/>
</g>
<defs>
<clipPath id="clip0_1530_31761">
<rect width="32" height="32" fill="white"/>
</clipPath>
</defs>
</svg>
